<?xml version="1.0" encoding="utf-8"?>
<!-- Generator: Adobe Illustrator 15.0.0, SVG Export Plug-In . SVG Version: 6.00 Build 0)  -->
<!DOCTYPE svg PUBLIC "-//W3C//DTD SVG 1.1//EN" "http://www.w3.org/Graphics/SVG/1.1/DTD/svg11.dtd">
<svg version="1.1" id="Layer_1" xmlns="http://www.w3.org/2000/svg" xmlns:xlink="http://www.w3.org/1999/xlink" x="0px" y="0px"
	 width="166.399px" height="142.076px" viewBox="0 0 166.399 142.076" enable-background="new 0 0 166.399 142.076"
	 xml:space="preserve">
<g>
	<path opacity="0.92" fill="#231F20" d="M133.883,14.284H30.903c-7.828,0-14.173,6.296-14.173,14.062v72.544
		c0,7.766,6.346,14.062,14.173,14.062h66.079l51.074,11.462V28.346C148.056,20.58,141.71,14.284,133.883,14.284z M42.09,104.553
		l-8.25-69.289l88.855-10.58l8.25,69.288L42.09,104.553z"/>
	<path opacity="0.46" d="M33.84,35.264l8.25,69.289l88.854-10.58l-8.25-69.288L33.84,35.264z M82.393,87.75
		c-12.775,0-23.132-10.356-23.132-23.131c0-12.775,10.356-23.132,23.132-23.132c12.775,0,23.131,10.356,23.131,23.132
		C105.524,77.393,95.168,87.75,82.393,87.75z"/>
</g>
</svg>
